<svg xmlns="http://www.w3.org/2000/svg" viewBox="0 0 47.5 47.5" id="High"><defs><clipPath id="a"><path d="M0 38h38V0H0v38Z" fill="#000000" class="color000000 svgShape"></path></clipPath></defs><path fill="#fd8787" d="M46.25 43.75h-45v2.5h45v-2.5Z" class="color939598 svgShape"></path><g clip-path="url(#a)" transform="matrix(1.25 0 0 -1.25 0 47.5)" fill="#000000" class="color000000 svgShape"><path fill="#d4d1d1" d="M4 2h33v29H22c-4 0-5-2-5-2l-4-6S1 18 1 13.001c0-4 6-6 6-6L4 2Z" class="colord1d3d4 svgShape"></path><path fill="#231f1f" d="m15 2 2 3h20V2H15Z" class="color231f20 svgShape"></path><path fill="#c33b3b" d="M1 13.001c0-4 6-6 6-6v12.875c-3-1.875-6-4.375-6-6.875M7 7v.001V7Z" class="color3b88c3 svgShape"></path><path fill="#992222" d="M7 7 4 2h33v5H7Z" class="color226699 svgShape"></path><path fill="#c33b3b" d="m21 7 4 6h12V7H21Z" class="color3b88c3 svgShape"></path><path fill="#ee5555" d="M27 29H17l-4-6h-.001 10.843c.476 0 1.108.448 1.412 1l2.197 4c.303.552.102 1-.451 1" class="color55acee svgShape"></path><path fill="#c33b3b" d="m26.902 27 .549 1c.303.552.101 1-.451 1H16.999l-1.333-2h11.236Z" class="color3b88c3 svgShape"></path></g></svg>