<svg width="9" height="10" viewBox="0 0 9 10" fill="none" xmlns="http://www.w3.org/2000/svg">
<path d="M6.42105 7.67901C6.57895 7.82716 6.7807 7.90123 7.02632 7.90123C7.27193 7.90123 7.47368 7.82716 7.63158 7.67901C7.78947 7.5144 7.86842 7.3251 7.86842 7.11111C7.86842 6.89712 7.78947 6.71605 7.63158 6.5679C7.47368 6.40329 7.27193 6.32099 7.02632 6.32099C6.7807 6.32099 6.57895 6.40329 6.42105 6.5679C6.26316 6.71605 6.18421 6.89712 6.18421 7.11111C6.18421 7.3251 6.26316 7.5144 6.42105 7.67901ZM5.05263 4.19753H7.86842V2.09877H5.05263V4.19753ZM3.94737 4.19753V2.09877H1.13158V4.19753H3.94737ZM1.36842 7.67901C1.52632 7.82716 1.72807 7.90123 1.97368 7.90123C2.2193 7.90123 2.42105 7.82716 2.57895 7.67901C2.73684 7.5144 2.81579 7.3251 2.81579 7.11111C2.81579 6.89712 2.73684 6.71605 2.57895 6.5679C2.42105 6.40329 2.2193 6.32099 1.97368 6.32099C1.72807 6.32099 1.52632 6.40329 1.36842 6.5679C1.21053 6.71605 1.13158 6.89712 1.13158 7.11111C1.13158 7.3251 1.21053 7.5144 1.36842 7.67901ZM4.5 0C5.95614 0 7.07018 0.139918 7.84211 0.419753C8.61404 0.699588 9 1.25926 9 2.09877V7.11111C9 7.6214 8.80702 8.05761 8.42105 8.41975C8.03509 8.76543 7.57018 8.93827 7.02632 8.93827L7.86842 9.72839V10H6.73684L5.63158 8.93827H3.5L2.39474 10H1.13158V9.72839L1.97368 8.93827C1.42982 8.93827 0.964912 8.76543 0.578947 8.41975C0.192982 8.05761 0 7.6214 0 7.11111V2.09877C0 1.65432 0.122807 1.28395 0.368421 0.987654C0.614035 0.691358 0.964912 0.477366 1.42105 0.345679C1.89474 0.213992 2.35965 0.123457 2.81579 0.0740741C3.28947 0.0246914 3.85088 0 4.5 0Z" fill="#B20A2F"/>
</svg>
