<svg xmlns="http://www.w3.org/2000/svg" viewBox="0 0 47.5 47.5" id="High"><defs><clipPath id="a"><path d="M0 38h38V0H0v38Z" fill="#000000" class="color000000 svgShape"></path></clipPath></defs><path fill="#989393" d="M46.25 43.75h-45v2.5h45v-2.5Z" class="color939598 svgShape"></path><g clip-path="url(#a)" transform="matrix(1.25 0 0 -1.25 0 47.5)" fill="#000000" class="color000000 svgShape"><path fill="#c0bcbc" d="M4 2h33v27S8 28 1 13.001c-2.115-4.531 6-6 6-6L4 2Z" class="colorbcbec0 svgShape"></path><path fill="#c33b3b" d="M24 19 9 12H.69C.106 8.251 7 7 7 7L4 2h33v19.709L24 19Z" class="color3b88c3 svgShape"></path><path fill="#231f1f" d="m15 2 2 3h20V2H15Z" class="color231f20 svgShape"></path><path fill="#e8e6e6" d="M37 22.858c-4.347-.358-13.388-1.62-19.581-6.044-5.604-4.002-11.877-3.899-16.033-3.829l-.39.006c-.347-.748-.411-1.41-.283-1.998.214-.003.411-.004.64-.008.553-.009 1.155-.019 1.799-.019 4.185 0 10.108.42 15.429 4.221 5.231 3.735 13.453 5.241 18.419 5.672v1.999Z" class="colore6e7e8 svgShape"></path><path fill="#fd8787" d="m13 21 3.878 4.929C21.727 27.868 30 28.98 37 28.98v-2c-7 0-18-1.98-24-5.98" class="colora7a9ac svgShape"></path><path fill="#5b5858" d="M4.095 17.535c1.672.392 3.617.723 5.44 1.65C19 24 20.008 26.983 20 27c-7 0-12-4-15.905-9.465" class="color58595b svgShape"></path><path fill="#992222" d="M7 7.001 6.999 7H37v2H2.113C3.988 7.548 7 7.001 7 7.001" class="color226699 svgShape"></path><path fill="#ffb6b6" d="M4.55 14.855a7.761 7.761 0 0 1 1.591.06c1.642.221 2.913.845 2.839 1.393-.074.541-1.435.803-3.052.594-.649-.631-1.121-1.325-1.378-2.047" class="colorffe8b6 svgShape"></path></g></svg>